<svg xmlns="http://www.w3.org/2000/svg" viewBox="0 0 75.94 54.43"><defs><style>.cls-1{fill:#77a5b0;stroke:#000;stroke-miterlimit:10;stroke-width:0.25px;}</style></defs><g id="Layer_2" data-name="Layer 2"><g id="Layer_1-2" data-name="Layer 1"><path class="cls-1" d="M32.46,21.41H2.35c-1.3,0-2.33-.87-2.21-1.88L5.74,1.71A2.08,2.08,0,0,1,8,.13H27a2,2,0,0,1,2.22,1.61l5.43,17.83C34.76,20.56,33.74,21.41,32.46,21.41Z"/><rect class="cls-1" x="0.13" y="8.4" width="59.5" height="45.89" rx="4.87"/><path class="cls-1" d="M63.69,54.28l-59.5,0L17,13.9a4.49,4.49,0,0,1,4.27-3.13l50.11,0a4.48,4.48,0,0,1,4.27,5.82Z"/></g></g></svg>